<svg width="63" height="82" viewBox="0 0 63 82" fill="none" xmlns="http://www.w3.org/2000/svg">
<path d="M50.3992 31.8539V18.9231C50.3992 12.1632 46.7971 5.91565 40.9498 2.53528C35.1017 -0.845093 27.8975 -0.845093 22.05 2.53528C16.2019 5.91565 12.5998 12.163 12.5998 18.9231V31.8539C9.04448 32.5863 5.85052 34.5229 3.55589 37.3376C1.26046 40.1531 0.00460167 43.6743 0 47.308V66.2311V66.2303C0.00547078 70.4112 1.66622 74.4192 4.61887 77.3755C7.57154 80.3317 11.5746 81.9946 15.7503 82H47.2497C51.4254 81.9945 55.4285 80.3317 58.3811 77.3755C61.3338 74.4192 62.9946 70.4112 63 66.2303V47.3081C62.9953 43.6741 61.7394 40.1529 59.4447 37.3376C57.1493 34.5229 53.9551 32.5863 50.4 31.8539L50.3992 31.8539ZM18.8998 18.9231C18.8998 14.416 21.3015 10.2515 25.1997 7.99796C29.0979 5.74438 33.9013 5.74438 37.7997 7.99796C41.6981 10.2515 44.0996 14.416 44.0996 18.9231V31.5386H18.9004L18.8998 18.9231ZM34.6493 55.8959L34.6501 59.9233C34.6501 61.0501 34.0491 62.0915 33.0746 62.655C32.1 63.2184 30.8996 63.2184 29.925 62.655C28.9505 62.0916 28.3502 61.0501 28.3502 59.9233V55.8965C26.7371 54.9638 25.6188 53.3651 25.2959 51.5285C24.9724 49.6928 25.4765 47.807 26.6738 46.379C27.8711 44.9509 29.6372 44.1262 31.4997 44.1262C33.3621 44.1262 35.1292 44.9509 36.3256 46.379C37.523 47.807 38.0271 49.6928 37.7043 51.5285C37.3807 53.3651 36.2623 54.9636 34.65 55.8965L34.6493 55.8959Z" fill="#F7F7F8"/>
</svg>
